Coordinates
version=1
nRows=13
nColumns=36
inDegrees=yes

Units are S.I. units (second, meters, Newtons, ...)
If the header above contains a line with 'inDegrees', this indicates whether rotational values are in degrees (yes) or radians (no).

endheader
time	pelvis_tilt	pelvis_list	pelvis_rotation	pelvis_tx	pelvis_ty	pelvis_tz	hip_flexion_r	hip_adduction_r	hip_rotation_r	knee_angle_r	knee_angle_r_beta	ankle_angle_r	subtalar_angle_r	mtp_angle_r	hip_flexion_l	hip_adduction_l	hip_rotation_l	knee_angle_l	knee_angle_l_beta	ankle_angle_l	subtalar_angle_l	mtp_angle_l	lumbar_extension	lumbar_bending	lumbar_rotation	arm_flex_r	arm_add_r	arm_rot_r	elbow_flex_r	pro_sup_r	arm_flex_l	arm_add_l	arm_rot_l	elbow_flex_l	pro_sup_l
      7.30000000	    -19.84779111	      3.85145217	      0.77717803	      0.48931266	      0.97249348	     -0.02800377	     27.60894281	     -5.42064272	      0.58742198	     24.97405165	      0.43587943	      0.35803405	     -4.25897289	     -7.49999987	     30.94690647	     -0.50170846	     -0.91726318	     22.85597807	      0.39891207	     -4.63833636	     -0.88192914	     -7.49999987	      4.40635144	     -1.14733918	     12.70228238	     -0.50861681	    -20.44920569	     -1.95548580	     98.42178386	     97.46999817	     46.96721435	    -10.69786858	     44.43019263	     91.02192895	     89.13332007
      7.31666670	    -17.93382794	      3.70196732	      0.53318428	      0.50271582	      1.02376555	     -0.01744992	     19.97853533	     -5.46687913	     -1.72761113	     14.38966198	      0.25114698	    -11.04732383	     -0.55186864	     -7.49999987	     23.33231374	     -1.49041547	     -1.77780239	     12.47480260	      0.21772638	    -13.50699149	      1.65096835	     -7.49999987	      4.47249972	     -0.51178779	     11.25612771	     -9.58240735	    -18.84246687	     -3.98669487	     76.88299222	    105.42665752	     32.01365168	    -18.47856035	     39.10712164	     79.76873767	     95.05684099
      7.33333330	    -15.74120361	      3.53132482	      0.29259862	      0.52365253	      1.07550541	     -0.00308081	     13.55124507	     -5.16992671	     -5.16956859	      6.73344139	      0.11752072	    -20.90826811	      0.67224169	     -7.49999987	     16.67696434	     -2.85343521	     -4.83478079	      5.16570746	      0.09015860	    -20.97196586	      2.33499267	     -7.49999987	      4.32541209	      0.02071699	      4.85442689	     -9.30608992	    -15.95588208	      1.00005617	     48.35051090	    109.98415846	     12.30462928	    -25.44542670	     25.63471957	     64.65874514	     99.28225960
      7.35000000	    -13.87772747	      1.75823357	      0.30699244	      0.52442384	      1.11560533	     -0.00306428	     10.75912083	     -2.78007429	     -7.15861649	      3.19632284	      0.05578636	    -18.93072612	     -2.76954734	     -7.49999987	     12.23002623	     -5.43280169	     -6.85482376	      1.71805610	      0.02998574	    -24.74458639	      2.13629603	     -7.49999987	      3.73800454	      1.51001421	      3.21228709	    -12.31913859	    -14.52732780	     -0.05803541	     26.84383357	    107.43111467	      4.00301947	    -24.40133207	     22.20918991	     40.37768791	     97.85829374
      7.36666670	    -12.01982743	      0.85398339	      0.55063652	      0.51946964	      1.14539258	     -0.00425076	      8.55647224	     -1.76601840	     -6.61638546	      1.25779749	      0.02195271	    -13.76522877	     -2.60828051	     -7.49999987	      9.02646799	     -7.20210906	     -7.93483018	      1.63777132	      0.02858450	    -28.08771220	     -0.06973466	     -7.49999987	      3.25379036	      2.47763716	      1.37839716	    -18.04142976	    -15.54272916	     -2.00279859	     16.24049122	    104.40996601	     -5.12676228	    -26.42998553	     19.54856462	     24.24425682	     96.73144192
      7.38333330	    -10.42591537	      0.21045656	     -0.40574496	      0.51567405	      1.17980077	      0.00128773	      7.39920690	     -1.48792749	     -5.62294442	      1.02597691	      0.01790668	    -11.01443713	     -3.81957719	     -7.49999987	      6.67041914	     -8.91966882	     -8.05108134	      3.38566924	      0.05909108	    -29.18492662	     -1.58900224	     -7.49999987	      2.13526101	      2.64716264	      1.05754841	    -23.39698856	    -16.06556873	     -0.39688362	     11.40803269	     94.29801471	    -15.90750831	    -27.84397740	     13.96920330	     15.92735615	     92.05022828
      7.40000000	     -9.67941742	      0.13755793	     -1.50750606	      0.51942709	      1.21552507	      0.00669109	      7.54363401	     -1.99717348	     -5.52640368	      0.81360464	      0.01420008	    -11.14682318	     -4.58427029	     -7.49999987	      5.40763753	     -9.78040005	     -7.86424476	      4.94854534	      0.08636841	    -28.55985117	     -2.67670898	     -7.49999987	      0.97134513	      2.01185765	      2.14596131	    -25.54065946	    -16.43777943	     -3.51574932	      8.50725357	     90.87593470	    -24.36536905	    -26.74985175	     11.76616537	      8.35757733	     87.35958615
      7.41666670	     -8.57615400	     -0.09922013	     -2.56349828	      0.52807605	      1.24182986	      0.01478161	      7.18950784	     -2.33963683	     -5.62640552	      0.67899289	      0.01185066	    -13.87746902	     -5.12547413	     -7.49999987	      3.59069062	    -10.75289926	     -7.43369049	      6.01521214	      0.10498526	    -26.21625440	     -2.48053823	     -7.49999987	      0.08732467	      1.53674010	      2.35830385	    -26.79742435	    -17.26459070	     -9.20077260	      7.13522504	     88.19883597	    -30.07991966	    -25.81177182	     -2.15968917	      3.99411591	     81.41133341
      7.43333330	     -8.24336078	     -0.16221949	     -3.46206906	      0.52978103	      1.26156986	      0.01770172	      7.92641096	     -2.77657753	     -5.45807276	      0.59195701	      0.01033160	    -14.05465599	     -6.02105752	     -7.49999987	      2.84725665	    -11.29977126	     -6.78363262	      6.23101920	      0.10875180	    -22.37238056	     -3.22205037	     -7.49999987	     -1.18625939	      0.82309745	      3.31697651	    -27.11997032	    -17.44213846	    -13.34892486	      8.28079246	     89.57247115	    -32.22556888	    -26.15506134	    -18.20117618	      2.76490769	     83.72781170
      7.45000000	     -8.46647108	      0.03904858	     -4.47547496	      0.52890151	      1.27607737	      0.02357158	      9.59814550	     -3.36212427	     -5.12392729	      0.45127744	      0.00787628	    -13.35332303	     -6.88345981	     -7.49999987	      3.08030730	    -11.65300118	     -6.00437660	      5.75069509	      0.10036856	    -19.65369098	     -3.99169529	     -7.49999987	     -2.77436749	     -0.04941611	      3.76998084	    -26.04944949	    -17.26104086	    -17.14848402	      9.71836391	     87.36330320	    -32.95454853	    -26.55371601	    -30.01448301	      2.36130764	     77.70671076
      7.46666670	     -9.22406981	      0.41852261	     -5.19624084	      0.53188133	      1.28866159	      0.02197907	     11.68520313	     -4.23403891	     -5.17170518	      0.44429719	      0.00775445	    -12.48854734	     -6.90037128	     -7.49999987	      4.15972066	    -11.51073337	     -5.96179938	      5.44240555	      0.09498790	    -18.05166780	     -4.87762434	     -7.49999987	     -4.16988779	     -0.34762971	      2.51063053	    -24.90059530	    -17.99801447	    -19.50047494	     12.15283783	     88.59042390	    -33.76114454	    -25.80968206	    -38.73672913	      2.38734649	     75.57876732
      7.48333330	     -9.42826866	      0.84690944	     -5.69840743	      0.53538883	      1.30557887	      0.02510362	     12.66624836	     -5.09729178	     -5.17131125	      0.60696128	      0.01059347	    -12.13873276	     -6.46747261	     -7.49999987	      4.70540853	    -11.01186406	     -6.31586226	      5.30142843	      0.09252738	    -17.22512724	     -5.73362399	     -7.49999987	     -5.39540273	     -0.42654535	      0.19480309	    -22.62186381	    -18.08567112	    -21.75484159	     13.90637513	     86.47740279	    -34.66331217	    -23.94665130	    -39.31703181	      2.55548848	     74.83650467
      7.50000000	     -9.74683456	      0.63472700	     -6.09453327	      0.53470108	      1.32134592	      0.02518994	     13.50235903	     -5.10772172	     -4.08306997	      1.24019888	      0.02164555	    -11.51742801	     -5.75743502	     -7.49999987	      5.20149329	    -10.97050600	     -6.31412530	      5.28962741	      0.09232141	    -16.10123428	     -5.77384008	     -7.49999987	     -6.14421896	      0.85058833	     -2.02422937	    -20.26903630	    -17.76323434	    -28.00755793	     16.36256944	     92.93812217	    -34.58469168	    -21.62242661	    -49.81814540	      2.90624531	     81.12653236
